solid csg.js
facet normal -1 0 0
outer loop
vertex -19 -9.5 0
vertex -19 -9.5 10
vertex -19 9.5 10
endloop
endfacet
facet normal -1 0 0
outer loop
vertex -19 -9.5 0
vertex -19 9.5 10
vertex -19 9.5 0
endloop
endfacet
facet normal 1 0 0
outer loop
vertex -18 8.5 1
vertex -18 8.5 9
vertex -18 -8.5 9
endloop
endfacet
facet normal 1 0 0
outer loop
vertex -18 8.5 1
vertex -18 -8.5 9
vertex -18 -8.5 1
endloop
endfacet
facet normal 1 0 0
outer loop
vertex 19 9.5 0
vertex 19 9.5 1
vertex 19 8.5 1
endloop
endfacet
facet normal 1 0 0
outer loop
vertex 19 9.5 0
vertex 19 8.5 1
vertex 19 -8.5 1
endloop
endfacet
facet normal 1 0 0
outer loop
vertex 19 9.5 0
vertex 19 -8.5 1
vertex 19 -9.5 1
endloop
endfacet
facet normal 1 0 0
outer loop
vertex 19 9.5 0
vertex 19 -9.5 1
vertex 19 -9.5 0
endloop
endfacet
facet normal 1 0 0
outer loop
vertex 19 -8.5 1
vertex 19 -8.5 9
vertex 19 -9.5 9
endloop
endfacet
facet normal 1 0 0
outer loop
vertex 19 -8.5 1
vertex 19 -9.5 9
vertex 19 -9.5 1
endloop
endfacet
facet normal 1 0 0
outer loop
vertex 19 9.5 1
vertex 19 9.5 9
vertex 19 8.5 9
endloop
endfacet
facet normal 1 0 0
outer loop
vertex 19 9.5 1
vertex 19 8.5 9
vertex 19 8.5 1
endloop
endfacet
facet normal 1 0 0
outer loop
vertex 19 -8.5 9
vertex 19 8.5 9
vertex 19 9.5 9
endloop
endfacet
facet normal 1 0 0
outer loop
vertex 19 -8.5 9
vertex 19 9.5 9
vertex 19 9.5 10
endloop
endfacet
facet normal 1 0 0
outer loop
vertex 19 -8.5 9
vertex 19 9.5 10
vertex 19 -9.5 10
endloop
endfacet
facet normal 1 0 0
outer loop
vertex 19 -8.5 9
vertex 19 -9.5 10
vertex 19 -9.5 9
endloop
endfacet
facet normal 0 -1 0
outer loop
vertex -19 -9.5 0
vertex 19 -9.5 0
vertex 19 -9.5 1
endloop
endfacet
facet normal 0 -1 0
outer loop
vertex -19 -9.5 0
vertex 19 -9.5 1
vertex 19 -9.5 9
endloop
endfacet
facet normal 0 -1 0
outer loop
vertex -19 -9.5 0
vertex 19 -9.5 9
vertex 19 -9.5 10
endloop
endfacet
facet normal 0 -1 0
outer loop
vertex -19 -9.5 0
vertex 19 -9.5 10
vertex -19 -9.5 10
endloop
endfacet
facet normal 0 1 0
outer loop
vertex 19 9.5 9
vertex 19 9.5 1
vertex 19 9.5 0
endloop
endfacet
facet normal 0 1 0
outer loop
vertex 19 9.5 9
vertex 19 9.5 0
vertex -19 9.5 0
endloop
endfacet
facet normal 0 1 0
outer loop
vertex 19 9.5 9
vertex -19 9.5 0
vertex -19 9.5 10
endloop
endfacet
facet normal 0 1 0
outer loop
vertex 19 9.5 9
vertex -19 9.5 10
vertex 19 9.5 10
endloop
endfacet
facet normal 0 0 -1
outer loop
vertex 19 -9.5 0
vertex -19 -9.5 0
vertex -19 9.5 0
endloop
endfacet
facet normal 0 0 -1
outer loop
vertex 19 -9.5 0
vertex -19 9.5 0
vertex 19 9.5 0
endloop
endfacet
facet normal 0 0 1
outer loop
vertex -19 -9.5 10
vertex 19 -9.5 10
vertex 19 9.5 10
endloop
endfacet
facet normal 0 0 1
outer loop
vertex -19 -9.5 10
vertex 19 9.5 10
vertex -19 9.5 10
endloop
endfacet
facet normal 0 1 0
outer loop
vertex -18 -8.5 9
vertex 19 -8.5 9
vertex 19 -8.5 1
endloop
endfacet
facet normal 0 1 0
outer loop
vertex -18 -8.5 9
vertex 19 -8.5 1
vertex -18 -8.5 1
endloop
endfacet
facet normal 0 -1 0
outer loop
vertex 19 8.5 1
vertex 19 8.5 9
vertex -18 8.5 9
endloop
endfacet
facet normal 0 -1 0
outer loop
vertex 19 8.5 1
vertex -18 8.5 9
vertex -18 8.5 1
endloop
endfacet
facet normal 0 0 1
outer loop
vertex 19 -8.5 1
vertex 19 8.5 1
vertex -18 8.5 1
endloop
endfacet
facet normal 0 0 1
outer loop
vertex 19 -8.5 1
vertex -18 8.5 1
vertex -18 -8.5 1
endloop
endfacet
facet normal 0 0 -1
outer loop
vertex -18 8.5 9
vertex 19 8.5 9
vertex 19 -8.5 9
endloop
endfacet
facet normal 0 0 -1
outer loop
vertex -18 8.5 9
vertex 19 -8.5 9
vertex -18 -8.5 9
endloop
endfacet
endsolid csg.js
