0
SECTION
2
HEADER
9
$INSUNITS
70
4
9
$ACADVER
1
AC1014
9
$HANDSEED
5
FFFF
0
ENDSEC
0
SECTION
2
TABLES
0
TABLE
2
VPORT
5
8
100
AcDbSymbolTable
0
ENDTAB
0
TABLE
2
LTYPE
5
5
100
AcDbSymbolTable
0
LTYPE
5
14
100
AcDbSymbolTableRecord
100
AcDbLinetypeTableRecord
2
BYBLOCK
70
0
0
LTYPE
5
15
100
AcDbSymbolTableRecord
100
AcDbLinetypeTableRecord
2
BYLAYER
70
0
0
ENDTAB
0
TABLE
2
LAYER
5
2
100
AcDbSymbolTable
70
2
0
LAYER
5
50
100
AcDbSymbolTableRecord
100
AcDbLayerTableRecord
2
0
70
0
6
CONTINUOUS
0
ENDTAB
0
TABLE
2
STYLE
5
3
100
AcDbSymbolTable
70
1
0
STYLE
5
11
100
AcDbSymbolTableRecord
100
AcDbTextStyleTableRecord
2
STANDARD
70
0
0
ENDTAB
0
TABLE
2
VIEW
5
6
100
AcDbSymbolTable
70
0
0
ENDTAB
0
TABLE
2
UCS
5
7
100
AcDbSymbolTable
70
0
0
ENDTAB
0
TABLE
2
APPID
5
9
100
AcDbSymbolTable
70
2
0
APPID
5
12
100
AcDbSymbolTableRecord
100
AcDbRegAppTableRecord
2
ACAD
70
0
0
ENDTAB
0
TABLE
2
DIMSTYLE
5
A
100
AcDbSymbolTable
70
1
0
ENDTAB
0
TABLE
2
BLOCK_RECORD
5
1
100
AcDbSymbolTable
70
1
0
BLOCK_RECORD
5
1F
100
AcDbSymbolTableRecord
100
AcDbBlockTableRecord
2
*MODEL_SPACE
0
BLOCK_RECORD
5
1B
100
AcDbSymbolTableRecord
100
AcDbBlockTableRecord
2
*PAPER_SPACE
0
ENDTAB
0
ENDSEC
0
SECTION
2
BLOCKS
0
BLOCK
5
20
100
AcDbEntity
100
AcDbBlockBegin
2
*MODEL_SPACE
0
ENDBLK
5
21
100
AcDbEntity
100
AcDbBlockEnd
0
BLOCK
5
1C
100
AcDbEntity
100
AcDbBlockBegin
2
*PAPER_SPACE
0
ENDBLK
5
1D
100
AcDbEntity
100
AcDbBlockEnd
0
ENDSEC
0
SECTION
2
ENTITIES
0
LWPOLYLINE
5
100
100
AcDbEntity
8
0
100
AcDbPolyline
90
12
70
1
43
0.0
10
10.125
20
-5.8000000000000007
10
10.125
20
4.2000000000000002
10
6.9249999999999972
20
4.2000000000000002
10
6.9249999999999972
20
2.5999999999999996
10
8.9249999999999972
20
2.5999999999999996
10
8.9249999999999989
20
-3.7999999999999998
10
-7.4249999999999989
20
-3.7999999999999994
10
-7.4250000000000016
20
2.6000000000000019
10
-5.4250000000000025
20
2.600000000000005
10
-5.4250000000000025
20
4.1999999999999993
10
-8.625
20
4.1999999999999993
10
-8.625
20
-5.8000000000000007
0
LINE
5
101
100
AcDbEntity
8
0
100
AcDbLine
10
-7.4250000000000016
20
2.6000000000000019
30
0
11
-5.4250000000000025
21
2.600000000000005
31
0
0
LINE
5
102
100
AcDbEntity
8
0
100
AcDbLine
10
6.9249999999999972
20
2.5999999999999996
30
0
11
8.9249999999999972
21
2.5999999999999996
31
0
0
LWPOLYLINE
5
103
100
AcDbEntity
8
0
100
AcDbPolyline
90
4
70
1
43
0.0
10
-10.625
20
2.9999999999999991
10
-8.625
20
2.9999999999999991
10
-8.625
20
1.4999999999999996
10
-10.625
20
1.4999999999999996
0
LWPOLYLINE
5
104
100
AcDbEntity
8
0
100
AcDbPolyline
90
4
70
1
43
0.0
10
-8.625
20
-5.5511151231257827e-16
10
-10.625
20
-5.5511151231257827e-16
10
-10.625
20
-1.5000000000000009
10
-8.625
20
-1.5000000000000009
0
LWPOLYLINE
5
105
100
AcDbEntity
8
0
100
AcDbPolyline
90
4
70
1
43
0.0
10
-10.625
20
-3.0000000000000009
10
-8.625
20
-3.0000000000000009
10
-8.625
20
-4.5000000000000009
10
-10.625
20
-4.5000000000000009
0
LINE
5
106
100
AcDbEntity
8
0
100
AcDbLine
10
12.125
20
3.7999999999999998
30
0
11
12.125
21
2.2999999999999998
31
0
0
LINE
5
107
100
AcDbEntity
8
0
100
AcDbLine
10
12.125
20
-2.2000000000000011
30
0
11
12.125
21
-3.7000000000000011
31
0
0
LINE
5
108
100
AcDbEntity
8
0
100
AcDbLine
10
12.125
20
-0.70000000000000062
30
0
11
12.125
21
0.7999999999999996
31
0
0
LINE
5
109
100
AcDbEntity
8
0
100
AcDbLine
10
10.125000000000002
20
3.7999999999999998
30
0
11
12.125
21
3.7999999999999998
31
0
0
LINE
5
110
100
AcDbEntity
8
0
100
AcDbLine
10
12.125
20
2.2999999999999998
30
0
11
10.125000000000002
21
2.2999999999999998
31
0
0
LINE
5
111
100
AcDbEntity
8
0
100
AcDbLine
10
12.125
20
0.7999999999999996
30
0
11
10.125000000000002
21
0.7999999999999996
31
0
0
LINE
5
112
100
AcDbEntity
8
0
100
AcDbLine
10
10.125000000000002
20
-0.70000000000000062
30
0
11
12.125
21
-0.70000000000000062
31
0
0
LINE
5
113
100
AcDbEntity
8
0
100
AcDbLine
10
10.125000000000002
20
-2.2000000000000011
30
0
11
12.125
21
-2.2000000000000011
31
0
0
LINE
5
114
100
AcDbEntity
8
0
100
AcDbLine
10
12.125
20
-3.7000000000000011
30
0
11
10.125000000000002
21
-3.7000000000000011
31
0
0
ENDSEC
0
SECTION
2
OBJECTS
0
DICTIONARY
5
C
100
AcDbDictionary
3
ACAD_GROUP
350
D
3
ACAD_MLINESTYLE
350
17
0
DICTIONARY
5
D
100
AcDbDictionary
0
DICTIONARY
5
1A
330
C
100
AcDbDictionary
0
DICTIONARY
5
17
100
AcDbDictionary
0
ENDSEC
0
EOF
