0
SECTION
2
HEADER
9
$INSUNITS
70
4
9
$ACADVER
1
AC1014
9
$HANDSEED
5
FFFF
0
ENDSEC
0
SECTION
2
TABLES
0
TABLE
2
VPORT
5
8
100
AcDbSymbolTable
0
ENDTAB
0
TABLE
2
LTYPE
5
5
100
AcDbSymbolTable
0
LTYPE
5
14
100
AcDbSymbolTableRecord
100
AcDbLinetypeTableRecord
2
BYBLOCK
70
0
0
LTYPE
5
15
100
AcDbSymbolTableRecord
100
AcDbLinetypeTableRecord
2
BYLAYER
70
0
0
ENDTAB
0
TABLE
2
LAYER
5
2
100
AcDbSymbolTable
70
2
0
LAYER
5
50
100
AcDbSymbolTableRecord
100
AcDbLayerTableRecord
2
0
70
0
6
CONTINUOUS
0
ENDTAB
0
TABLE
2
STYLE
5
3
100
AcDbSymbolTable
70
1
0
STYLE
5
11
100
AcDbSymbolTableRecord
100
AcDbTextStyleTableRecord
2
STANDARD
70
0
0
ENDTAB
0
TABLE
2
VIEW
5
6
100
AcDbSymbolTable
70
0
0
ENDTAB
0
TABLE
2
UCS
5
7
100
AcDbSymbolTable
70
0
0
ENDTAB
0
TABLE
2
APPID
5
9
100
AcDbSymbolTable
70
2
0
APPID
5
12
100
AcDbSymbolTableRecord
100
AcDbRegAppTableRecord
2
ACAD
70
0
0
ENDTAB
0
TABLE
2
DIMSTYLE
5
A
100
AcDbSymbolTable
70
1
0
ENDTAB
0
TABLE
2
BLOCK_RECORD
5
1
100
AcDbSymbolTable
70
1
0
BLOCK_RECORD
5
1F
100
AcDbSymbolTableRecord
100
AcDbBlockTableRecord
2
*MODEL_SPACE
0
BLOCK_RECORD
5
1B
100
AcDbSymbolTableRecord
100
AcDbBlockTableRecord
2
*PAPER_SPACE
0
ENDTAB
0
ENDSEC
0
SECTION
2
BLOCKS
0
BLOCK
5
20
100
AcDbEntity
100
AcDbBlockBegin
2
*MODEL_SPACE
0
ENDBLK
5
21
100
AcDbEntity
100
AcDbBlockEnd
0
BLOCK
5
1C
100
AcDbEntity
100
AcDbBlockBegin
2
*PAPER_SPACE
0
ENDBLK
5
1D
100
AcDbEntity
100
AcDbBlockEnd
0
ENDSEC
0
SECTION
2
ENTITIES
0
LWPOLYLINE
5
100
100
AcDbEntity
8
0
100
AcDbPolyline
90
46
70
1
43
0.0
10
-6.0249999999999995
20
4.6000000000000005
10
-6.0249999999999995
20
3.7999999999999998
10
-8.4249999999999989
20
3.7999999999999998
42
0.41421356237309764
10
-8.9249999999999989
20
3.3000000000000003
10
-8.9249999999999972
20
-1.5999999999999992
10
-7.9249999999999972
20
-2.5999999999999988
10
-6.9249999999999972
20
-2.5999999999999988
10
-6.9249999999999972
20
-4.2000000000000002
10
-9.6351020514433667
20
-4.2000000000000002
42
-0.35639395869259993
10
-10.125000000000002
20
-3.7999999999999998
42
-0.66907841025265291
10
-10.505771078139894
20
-2.4571660662396395
42
0.22967427015415731
10
-10.125
20
-1.6719555579477741
10
-10.125000000000002
20
-1.4280444420522249
42
0.22967427015415781
10
-10.505771078139894
20
-0.64283393376035969
42
-0.48492865813553399
10
-10.505771078139894
20
0.54283393376036104
42
0.22967427015415739
10
-10.125
20
1.328044442052227
10
-10.125000000000002
20
1.5719555579477755
42
0.22967427015415781
10
-10.505771078139894
20
2.3571660662396403
42
-0.48492865813553404
10
-10.505771078139894
20
3.5428339337603614
42
0.22967427015415309
10
-10.125
20
4.328044442052227
10
-10.125
20
5.3000000000000007
42
-0.4142135623730957
10
-9.625
20
5.8000000000000007
10
8.125
20
5.7999999999999998
42
-0.41421356237309503
10
8.625
20
5.3000000000000007
10
8.625
20
5.1280444420522242
42
0.22967427015415381
10
9.0057710781398939
20
4.3428339337603585
42
-0.48492865813553199
10
9.0057710781398921
20
3.1571660662396428
42
0.22967427015415626
10
8.625
20
2.371955557947778
10
8.625
20
2.1280444420522233
42
0.22967427015415587
10
9.0057710781398921
20
1.3428339337603588
42
-0.48492865813553204
10
9.0057710781398921
20
0.15716606623964249
42
0.22967427015415595
10
8.625
20
-0.62804444205222243
10
8.625
20
-0.87195555794777768
42
0.2296742701541564
10
9.0057710781398921
20
-1.6571660662396424
42
-0.48492865813553093
10
9.0057710781398921
20
-2.8428339337603568
42
0.22967427015415681
10
8.625
20
-3.6280444420522215
10
8.625
20
-3.6999999999999988
42
-0.41421356237309437
10
8.1250000000000018
20
-4.1999999999999993
10
5.4250000000000007
20
-4.1999999999999993
10
5.4250000000000007
20
-2.6000000000000059
10
6.4250000000000016
20
-2.6000000000000032
10
7.4250000000000025
20
-1.6000000000000025
10
7.4249999999999989
20
3.2999999999999998
42
0.4142135623730937
10
6.9249999999999998
20
3.7999999999999994
10
4.5250000000000021
20
3.7999999999999998
10
4.5250000000000021
20
4.6000000000000005
0
ENDSEC
0
SECTION
2
OBJECTS
0
DICTIONARY
5
C
100
AcDbDictionary
3
ACAD_GROUP
350
D
3
ACAD_MLINESTYLE
350
17
0
DICTIONARY
5
D
100
AcDbDictionary
0
DICTIONARY
5
1A
330
C
100
AcDbDictionary
0
DICTIONARY
5
17
100
AcDbDictionary
0
ENDSEC
0
EOF
